<svg xmlns="http://www.w3.org/2000/svg" width="1120" height="440" viewBox="0 0 1120 440" role="img" aria-label="Распределения catch rate по seed/repeat"><title>Распределения catch rate по seed/repeat</title><style>text{font-family:'Segoe UI',Arial,sans-serif;fill:#1f2937}.title{font-size:22px;font-weight:700}.subtitle{font-size:13px;fill:#4b5563}.axis{stroke:#4b5563;stroke-width:1}.grid{stroke:#d1d5db;stroke-width:1}.legend{font-size:12px}.label{font-size:12px}.tick{font-size:11px;fill:#4b5563}</style><rect x="0" y="0" width="1120" height="440" fill="#ffffff"/><text class="title" x="24" y="34">Распределения catch rate по seed/repeat</text><text class="subtitle" x="24" y="56">Boxplot по полным run-level метрикам</text><text class="label" x="70.0" y="56">adult</text><line class="grid" x1="70.0" y1="360.0" x2="520.0" y2="360.0"/><text class="tick" x="60.0" y="364.0" text-anchor="end">-0.68</text><line class="grid" x1="70.0" y1="302.0" x2="520.0" y2="302.0"/><text class="tick" x="60.0" y="306.0" text-anchor="end">1.38</text><line class="grid" x1="70.0" y1="244.0" x2="520.0" y2="244.0"/><text class="tick" x="60.0" y="248.0" text-anchor="end">3.44</text><line class="grid" x1="70.0" y1="186.0" x2="520.0" y2="186.0"/><text class="tick" x="60.0" y="190.0" text-anchor="end">5.50</text><line class="grid" x1="70.0" y1="128.0" x2="520.0" y2="128.0"/><text class="tick" x="60.0" y="132.0" text-anchor="end">7.56</text><line class="grid" x1="70.0" y1="70.0" x2="520.0" y2="70.0"/><text class="tick" x="60.0" y="74.0" text-anchor="end">9.62</text><line class="axis" x1="70.0" y1="70" x2="70.0" y2="360"/><line class="axis" x1="70.0" y1="360" x2="520.0" y2="360"/><line class="axis" x1="152.3" y1="325.7" x2="152.3" y2="298.2"/><line class="axis" x1="152.3" y1="270.3" x2="152.3" y2="241.2"/><rect x="92.0" y="270.3" width="120.7" height="27.9" fill="#103260" opacity="0.75" stroke="#1f2937"/><line class="axis" x1="92.0" y1="288.5" x2="212.7" y2="288.5"/><line class="axis" x1="96.0" y1="325.7" x2="208.7" y2="325.7"/><line class="axis" x1="96.0" y1="241.2" x2="208.7" y2="241.2"/><text class="tick" x="152.3" y="378" text-anchor="middle">ANN V3.1</text><line class="axis" x1="295.0" y1="335.8" x2="295.0" y2="327.0"/><line class="axis" x1="295.0" y1="307.1" x2="295.0" y2="278.4"/><rect x="234.7" y="307.1" width="120.7" height="19.9" fill="#27ae60" opacity="0.75" stroke="#1f2937"/><line class="axis" x1="234.7" y1="320.6" x2="355.3" y2="320.6"/><line class="axis" x1="238.7" y1="335.8" x2="351.3" y2="335.8"/><line class="axis" x1="238.7" y1="278.4" x2="351.3" y2="278.4"/><text class="tick" x="295.0" y="378" text-anchor="middle">SNN</text><line class="axis" x1="437.7" y1="332.5" x2="437.7" y2="240.8"/><line class="axis" x1="437.7" y1="145.3" x2="437.7" y2="94.2"/><rect x="377.3" y="145.3" width="120.7" height="95.5" fill="#a75a1c" opacity="0.75" stroke="#1f2937"/><line class="axis" x1="377.3" y1="193.9" x2="498.0" y2="193.9"/><line class="axis" x1="381.3" y1="332.5" x2="494.0" y2="332.5"/><line class="axis" x1="381.3" y1="94.2" x2="494.0" y2="94.2"/><text class="tick" x="437.7" y="378" text-anchor="middle">BIO dual fast compare</text><text class="label" x="630.0" y="56">developmental</text><line class="grid" x1="630.0" y1="360.0" x2="1080.0" y2="360.0"/><text class="tick" x="620.0" y="364.0" text-anchor="end">-0.70</text><line class="grid" x1="630.0" y1="302.0" x2="1080.0" y2="302.0"/><text class="tick" x="620.0" y="306.0" text-anchor="end">1.41</text><line class="grid" x1="630.0" y1="244.0" x2="1080.0" y2="244.0"/><text class="tick" x="620.0" y="248.0" text-anchor="end">3.53</text><line class="grid" x1="630.0" y1="186.0" x2="1080.0" y2="186.0"/><text class="tick" x="620.0" y="190.0" text-anchor="end">5.65</text><line class="grid" x1="630.0" y1="128.0" x2="1080.0" y2="128.0"/><text class="tick" x="620.0" y="132.0" text-anchor="end">7.77</text><line class="grid" x1="630.0" y1="70.0" x2="1080.0" y2="70.0"/><text class="tick" x="620.0" y="74.0" text-anchor="end">9.88</text><line class="axis" x1="630.0" y1="70" x2="630.0" y2="360"/><line class="axis" x1="630.0" y1="360" x2="1080.0" y2="360"/><line class="axis" x1="712.3" y1="296.4" x2="712.3" y2="275.0"/><line class="axis" x1="712.3" y1="260.6" x2="712.3" y2="225.7"/><rect x="652.0" y="260.6" width="120.7" height="14.4" fill="#103260" opacity="0.75" stroke="#1f2937"/><line class="axis" x1="652.0" y1="268.4" x2="772.7" y2="268.4"/><line class="axis" x1="656.0" y1="296.4" x2="768.7" y2="296.4"/><line class="axis" x1="656.0" y1="225.7" x2="768.7" y2="225.7"/><text class="tick" x="712.3" y="378" text-anchor="middle">ANN V3.1</text><line class="axis" x1="855.0" y1="335.8" x2="855.0" y2="328.8"/><line class="axis" x1="855.0" y1="311.6" x2="855.0" y2="278.3"/><rect x="794.7" y="311.6" width="120.7" height="17.3" fill="#27ae60" opacity="0.75" stroke="#1f2937"/><line class="axis" x1="794.7" y1="321.9" x2="915.3" y2="321.9"/><line class="axis" x1="798.7" y1="335.8" x2="911.3" y2="335.8"/><line class="axis" x1="798.7" y1="278.3" x2="911.3" y2="278.3"/><text class="tick" x="855.0" y="378" text-anchor="middle">SNN</text><line class="axis" x1="997.7" y1="303.0" x2="997.7" y2="238.8"/><line class="axis" x1="997.7" y1="152.1" x2="997.7" y2="94.2"/><rect x="937.3" y="152.1" width="120.7" height="86.7" fill="#a75a1c" opacity="0.75" stroke="#1f2937"/><line class="axis" x1="937.3" y1="204.3" x2="1058.0" y2="204.3"/><line class="axis" x1="941.3" y1="303.0" x2="1054.0" y2="303.0"/><line class="axis" x1="941.3" y1="94.2" x2="1054.0" y2="94.2"/><text class="tick" x="997.7" y="378" text-anchor="middle">BIO dual fast compare</text></svg>